<svg xmlns="http://www.w3.org/2000/svg" xmlns:xlink="http://www.w3.org/1999/xlink" viewBox="0 0 1379.81 919.87"><defs><style>.cls-1,.cls-2,.cls-3{fill-rule:evenodd;}.cls-1{fill:url(#Degradado_sin_nombre_21);}.cls-2{fill:url(#Degradado_sin_nombre_18);}.cls-3{fill:url(#Degradado_sin_nombre_18-2);}</style><linearGradient id="Degradado_sin_nombre_21" x1="-34.97" y1="-64.91" x2="1082.64" y2="744.3" gradientUnits="userSpaceOnUse"><stop offset="0.01" stop-color="#fff"/><stop offset="0.24" stop-color="#843dff"/><stop offset="0.31" stop-color="#712ae3"/><stop offset="0.4" stop-color="#5c16c6"/><stop offset="0.48" stop-color="#5009b3"/><stop offset="0.53" stop-color="#4b05ad"/><stop offset="0.73" stop-color="#7916ff"/><stop offset="0.99" stop-color="#bea6ff"/></linearGradient><linearGradient id="Degradado_sin_nombre_18" x1="171.98" y1="100.22" x2="1327.97" y2="757.35" gradientUnits="userSpaceOnUse"><stop offset="0.07" stop-color="#fff"/><stop offset="0.35" stop-color="#843dff"/><stop offset="0.54" stop-color="#4b05ad"/><stop offset="0.71" stop-color="#7916ff"/><stop offset="0.99" stop-color="#bea6ff"/></linearGradient><linearGradient id="Degradado_sin_nombre_18-2" x1="78.49" y1="43.14" x2="1060.37" y2="820.01" xlink:href="#Degradado_sin_nombre_18"/></defs><g id="Capa_2" data-name="Capa 2"><g id="Capa_1-2" data-name="Capa 1"><polygon class="cls-1" points="1379.81 0 0 0 0 919.87 1379.81 919.87 1379.81 0 1379.81 0"/><path class="cls-2" d="M229.74,919.87C139,821.12,152.31,606.7,258.45,526c19.68-15,39.63-23,59.53-25.53,66.63-8.58,132.73,43.82,186.23,100.33,122,128.84,272,331,433.23,199.27,94.74-77.4,134.34-202.92,137.67-337.3.64-25.52,0-51.36-1.89-77.26-.15-2-.32-4.08-.49-6.12-.52-6.64-1.09-13.28-1.77-19.91-.21-2.12-.44-4.25-.67-6.38q-1.24-11.49-2.79-23c-.27-2.05-.56-4.1-.85-6.15-.92-6.55-1.94-13.08-3-19.61-.34-2.08-.66-4.16-1-6.24-14.13-83.31-39.12-163.95-70.65-232.7Q976.71,32.08,960.12,0h419.69V919.87Z"/><path class="cls-3" d="M0,400.54a512.81,512.81,0,0,1,111.82-68.43C217,285,332.31,263.86,434.44,209.31a605.79,605.79,0,0,0,122.67-86.77c.91-.83,1.81-1.67,2.71-2.51C597.7,84.69,630.24,44,650.32,0h560.22c41.86,140.14,78.82,317.5-30.23,417.88-28.85,26.57-66.15,39.93-105.2,44.89-37.4,4.76-76.42,1.81-111.16-4.61C825.76,432.61,717.21,335.75,592,279.23c-70.64-31.89-158.71-46.69-229.06-5.91-96.4,55.88-84.87,145.34-45,227.15A537,537,0,0,0,346.4,551c67.65,107.31,156.23,238,162.41,368.84H0V400.54Z"/></g></g></svg>